<svg xmlns="http://www.w3.org/2000/svg" viewBox="0 0 64 64" fill="none">
  <defs>
    <linearGradient id="flowGrad" x1="0" y1="0" x2="64" y2="64" gradientUnits="userSpaceOnUse">
      <stop stop-color="#6366f1"/>
      <stop offset="0.5" stop-color="#8b5cf6"/>
      <stop offset="1" stop-color="#06b6d4"/>
    </linearGradient>
    <linearGradient id="glowGrad" x1="0" y1="0" x2="64" y2="64" gradientUnits="userSpaceOnUse">
      <stop stop-color="#ffffff" stop-opacity="0.3"/>
      <stop offset="1" stop-color="#ffffff" stop-opacity="0"/>
    </linearGradient>
  </defs>
  <rect width="64" height="64" rx="16" fill="url(#flowGrad)"/>
  <rect x="1" y="1" width="62" height="62" rx="15" stroke="url(#glowGrad)" stroke-width="2"/>
  <rect x="18" y="18" width="7" height="28" rx="2.5" fill="white"/>
  <path d="M43 18H37.5C36.7 18 36 18.4 35.5 19L27 28.5V35.5L37.2 45.3C37.7 45.8 38.4 46 39.1 46H44.5C45.5 46 46 44.8 45.3 44L34.8 32L44.2 19.9C44.9 19.1 44.3 18 43 18Z" fill="white"/>
  <circle cx="48" cy="48" r="4.5" fill="#10b981"/>
</svg>
